<?xml version="1.0" standalone="no"?>
<!DOCTYPE svg PUBLIC "-//W3C//DTD SVG 20010904//EN"
 "http://www.w3.org/TR/2001/REC-SVG-20010904/DTD/svg10.dtd">
<svg version="1.0" xmlns="http://www.w3.org/2000/svg"
 width="290.000000pt" height="275.000000pt" viewBox="0 0 290.000000 275.000000"
 preserveAspectRatio="xMidYMid meet">

<g transform="translate(0.000000,275.000000) scale(0.100000,-0.100000)"
fill="#000000" stroke="none">
<path d="M1348 2646 c-25 -7 -57 -19 -70 -28 -80 -54 -791 -753 -1028 -1010
-146 -160 -163 -192 -162 -311 1 -180 146 -317 335 -317 129 0 116 -10 607
468 l65 63 5 -598 5 -598 29 -63 c37 -80 108 -146 179 -167 71 -21 201 -19
252 4 51 23 437 392 786 752 363 374 403 418 417 466 17 57 15 162 -5 224 -24
76 -127 180 -198 199 -65 18 -190 17 -235 -2 -37 -16 -258 -218 -445 -407 -60
-61 -112 -111 -115 -111 -3 0 -4 226 -2 502 3 529 -5 714 -34 770 -45 88 -107
137 -206 164 -64 17 -118 17 -180 0z"/>
</g>
</svg>
